<svg version="1.1" id="Layer_1" xmlns="http://www.w3.org/2000/svg" xmlns:xlink="http://www.w3.org/1999/xlink" x="0px" y="0px" viewBox="0 0 500 500" style="width: 144px;" xml:space="preserve" data-imageid="online-shopping-1-7" imageName="Online Shopping 1" class="illustrations_image">
<style type="text/css">
	.st0_online-shopping-1-7{fill:#4444A5;}
	.st1_online-shopping-1-7{fill:url(#sd_00000132767358318637929980000002578929163464818354_);}
	.st2_online-shopping-1-7{fill:#68E1FD;}
	.st3_online-shopping-1-7{opacity:0.15;enable-background:new    ;}
	.st4_online-shopping-1-7{opacity:0.81;enable-background:new    ;}
	.st5_online-shopping-1-7{fill:#938F05;}
	.st6_online-shopping-1-7{fill:url(#SVGID_1_);}
	.st7_online-shopping-1-7{opacity:0.5;enable-background:new    ;}
	.st8_online-shopping-1-7{fill:#E04F4F;}
	.st9_online-shopping-1-7{fill:#FF9739;}
	.st10_online-shopping-1-7{opacity:0.3;enable-background:new    ;}
	.st11_online-shopping-1-7{opacity:0.2;enable-background:new    ;}
	.st12_online-shopping-1-7{fill:#FFB288;}
	.st13_online-shopping-1-7{fill:url(#SVGID_00000064323696488118600170000011586178781829839748_);}
	.st14_online-shopping-1-7{fill:#D8D8D8;}
	.st15_online-shopping-1-7{fill:#747E80;}
	.st16_online-shopping-1-7{fill:#F14A24;}
	.st17_online-shopping-1-7{opacity:0.28;enable-background:new    ;}
</style>
<path id="field_online-shopping-1-7" class="st0_online-shopping-1-7" d="M243,429.1L21.7,298.3c-7-4-13.1-10.5-6.2-14.7l222.1-128c3.3-2.1,8.4-3.4,11.8-1.4L481.6,289&#10;&#9;c7,4.1,8.3,15.5,1.3,19.6L272.1,428.9C263.1,434.1,252.1,434.1,243,429.1z"/>
<linearGradient id="sd_00000137101341900782470260000008442800284704016007_-online-shopping-1-7" gradientUnits="userSpaceOnUse" x1="48.5536" y1="203.2115" x2="104.0036" y2="234.2115" gradientTransform="matrix(1 0 0 -1 0 502)">
	<stop offset="0" style="stop-color:#4444A5;stop-opacity:0"/>
	<stop offset="1" style="stop-color:#000000"/>
</linearGradient>
<path id="sd_online-shopping-1-7" style="fill:url(#sd_00000137101341900782470260000008442800284704016007_);" d="M53.9,307.8l53.5-30.3L84.1,267&#10;&#9;L32,296C38.7,300.9,46.6,303.9,53.9,307.8z"/>
<g id="plant_online-shopping-1-7">
	<path class="st2_online-shopping-1-7 targetColor" d="M82.6,250.4c0,0-4.7,32,15.4,32.1c19.3,0.1,14.3-32.5,14.3-32.5S98.3,237.7,82.6,250.4z" style="fill: rgb(104, 225, 253);"/>
	<path class="st3_online-shopping-1-7" d="M82.6,250.4c0,0-4.7,32,15.4,32.1c19.3,0.1,14.3-32.5,14.3-32.5S98.3,237.7,82.6,250.4z"/>
	<ellipse class="st2_online-shopping-1-7 targetColor" cx="97.4" cy="250.4" rx="14.9" ry="6.1" style="fill: rgb(104, 225, 253);"/>
	<ellipse class="st4_online-shopping-1-7" cx="97.4" cy="250.4" rx="14.9" ry="6.1"/>
	<path class="st5_online-shopping-1-7" d="M74,203.7c0,0-10.4-2.5-6.4-11.1C67.6,192.6,74.7,194,74,203.7z"/>
	<path class="st5_online-shopping-1-7" d="M80.3,212.4c0,0-1.4-7.4,4.3-10.4C84.6,202,89.2,209.8,80.3,212.4z"/>
	<path class="st5_online-shopping-1-7" d="M86.8,223.7c0,0-1.7-8.8,5.2-12.4C91.9,211.3,97.5,220.5,86.8,223.7z"/>
	<path class="st5_online-shopping-1-7" d="M91.8,236c0,0-1.7-8.8,5.2-12.4C97,223.6,102.5,232.9,91.8,236z"/>
	<path class="st5_online-shopping-1-7" d="M79.7,212.6c0,0-3.7-6.6-10-5.1C69.7,207.5,71.1,216.3,79.7,212.6z"/>
	<path class="st5_online-shopping-1-7" d="M86.2,224c0,0-4.7-7.7-12.2-5.6C74.1,218.3,76.2,228.9,86.2,224z"/>
	<path class="st5_online-shopping-1-7" d="M91.2,236.1c0,0-5.5-7.1-12.7-4.3C78.5,231.8,81.8,242.1,91.2,236.1z"/>
	<path d="M95.1,256.6h0.1c0.5,0,1,0,1.4,0.1c0,0,0-0.1,0-0.1c-2.3-19.7-10-38.4-22.3-54c-0.7-0.8-1.8,0.3-1.2,1.1&#10;&#9;&#9;C85.2,218.9,92.8,237.2,95.1,256.6L95.1,256.6z"/>
	<path class="st5_online-shopping-1-7" d="M119.6,217.8c0,0,8.9-2.1,5.5-9.5C125.1,208.2,119,209.4,119.6,217.8z"/>
	<path class="st5_online-shopping-1-7" d="M114.2,225.2c0,0,1.2-6.3-3.7-8.9C110.5,216.3,106.5,223,114.2,225.2z"/>
	<path class="st5_online-shopping-1-7" d="M108.7,234.9c0,0,1.5-7.6-4.4-10.6C104.2,224.3,99.5,232.2,108.7,234.9z"/>
	<path class="st5_online-shopping-1-7" d="M104.4,245.5c0,0,1.5-7.6-4.4-10.6C99.9,234.9,95.2,242.8,104.4,245.5z"/>
	<path class="st5_online-shopping-1-7" d="M114.7,225.4c0,0,3.1-5.6,8.6-4.4C123.3,221,122.1,228.6,114.7,225.4z"/>
	<path class="st5_online-shopping-1-7" d="M109.1,235.1c0,0,4-6.6,10.4-4.9C119.6,230.3,117.7,239.4,109.1,235.1z"/>
	<path class="st5_online-shopping-1-7" d="M104.9,245.6c0,0,4.7-6.1,10.9-3.7C115.8,241.9,112.9,250.7,104.9,245.6z"/>
	<path d="M119.3,216.8c-9.2,11.5-15.4,25.1-18.2,39.6c0.5-0.1,0.9-0.1,1.4-0.2c2.7-14,8.8-27.2,17.7-38.5&#10;&#9;&#9;C120.9,217.1,119.9,216.1,119.3,216.8z"/>
</g>
<g id="wifi_online-shopping-1-7">
	<path class="st2_online-shopping-1-7 targetColor" d="M158.8,167.1c2-1,4-1.1,5.6,0c3.1,2.2,3.1,8.4,0,13.9c-1.3,2.4-3.2,4.4-5.5,5.7c-2,1-4,1.1-5.6,0&#10;&#9;&#9;c-3.1-2.2-3.1-8.4,0-13.8C154.5,170.5,156.4,168.5,158.8,167.1z" style="fill: rgb(104, 225, 253);"/>
	<path class="st2_online-shopping-1-7 targetColor" d="M158.7,134c8.8-4.5,17.7-4.9,24.5,0.1c1,0.7,1,2.7,0,4.4c-0.4,0.8-1,1.4-1.8,1.8c-0.5,0.3-1.2,0.3-1.8,0&#10;&#9;&#9;c-5.8-4.2-13.4-4-20.9-0.1s-15.1,11.4-20.9,21.5c-0.4,0.8-1,1.4-1.8,1.8c-0.5,0.3-1.2,0.3-1.8,0c-1-0.7-1-2.7,0-4.4&#10;&#9;&#9;C141,147.3,149.8,138.6,158.7,134z" style="fill: rgb(104, 225, 253);"/>
	<path class="st2_online-shopping-1-7 targetColor" d="M158.6,116.9c12.2-6.3,24.4-6.6,33.9,0.3c1.6,1.2,0.5,5.1-1.8,6.2c-0.5,0.3-1.2,0.3-1.8,0&#10;&#9;&#9;c-8.5-6.2-19.5-6-30.4-0.4c-10.9,5.6-21.8,16.5-30.3,31.5c-0.4,0.8-1,1.4-1.8,1.8c-0.5,0.3-1.2,0.3-1.8,0c-1-0.7-1-2.7,0-4.4&#10;&#9;&#9;C134.2,135.4,146.4,123.2,158.6,116.9z" style="fill: rgb(104, 225, 253);"/>
	<path class="st2_online-shopping-1-7 targetColor" d="M158.7,150c5.6-2.9,11.1-3.1,15.4,0.1c1.6,1.1,0.5,5.1-1.8,6.2c-0.5,0.3-1.2,0.3-1.8,0&#10;&#9;&#9;c-3.3-2.4-7.6-2.2-11.9,0s-8.6,6.4-11.8,12.2c-0.4,0.8-1,1.4-1.8,1.8c-0.5,0.3-1.2,0.3-1.8,0c-1-0.7-1-2.7,0-4.4&#10;&#9;&#9;C147.6,158.4,153.1,152.9,158.7,150z" style="fill: rgb(104, 225, 253);"/>
</g>
<g id="phone_online-shopping-1-7">
	
		<linearGradient id="SVGID_1_-online-shopping-1-7" gradientUnits="userSpaceOnUse" x1="321.8068" y1="193.0912" x2="389.7867" y2="273.1912" gradientTransform="matrix(1 0 0 -1 0 502)">
		<stop offset="0" style="stop-color:#4444A5;stop-opacity:0"/>
		<stop offset="1" style="stop-color:#000000"/>
	</linearGradient>
	<path class="st6_online-shopping-1-7" d="M341.3,339l61.4-35.7l-77.9-45.7l-63.5,32.8C267.9,295.3,334,335.1,341.3,339z"/>
	<path class="st2_online-shopping-1-7 targetColor" d="M320.1,70.1l23.2,13.4v5c0,0.9,0.5,1.7,1.2,2.1l18,10.4c0.8,0.4,1.7,0.2,2.2-0.6c0.1-0.2,0.2-0.5,0.2-0.8V96&#10;&#9;&#9;l33.7,19.8c0.6,0.4,1,1.1,1,1.8v180.1c0,0.8-0.6,1.5-1.4,1.5c-0.3,0-0.5-0.1-0.7-0.2l-78.1-45.3c-0.3,2.8,1.1,5.6,3.4,7.2&#10;&#9;&#9;c4,2.6,75.2,42.9,75.2,42.9s5.6,2.5,7.3-4.2V118.3c0-2.4-1.1-4.6-3-6c-3.3-2.3-75.9-44.6-75.9-44.6S321.3,65.4,320.1,70.1z" style="fill: rgb(104, 225, 253);"/>
	<path class="st2_online-shopping-1-7 targetColor" d="M326.7,68.1c16.9,10.6,59.5,35.2,74,44.1c3.3,2,3.8,5,3.8,8.9v180.1c-1.8,2.1-5,2.6-7.4,1.1L325.7,262&#10;&#9;&#9;c-3.5-2.1-6.4-4.2-6.4-8.4L320,71.4C320,67.5,323.3,66.1,326.7,68.1z" style="fill: rgb(104, 225, 253);"/>
	<path class="st7_online-shopping-1-7" d="M320.1,70.1l23.2,13.4v5c0,0.9,0.5,1.7,1.2,2.1l18,10.4c0.8,0.4,1.7,0.2,2.2-0.6c0.1-0.2,0.2-0.5,0.2-0.8V96&#10;&#9;&#9;l33.7,19.8c0.6,0.4,1,1.1,1,1.8v180.1c0,0.8-0.6,1.5-1.4,1.5c-0.3,0-0.5-0.1-0.7-0.2l-78.1-45.3c-0.3,2.8,1.1,5.6,3.4,7.2&#10;&#9;&#9;c4,2.6,75.2,42.9,75.2,42.9s5.6,2.5,7.3-4.2V118.3c0-2.4-1.1-4.6-3-6c-3.3-2.3-75.9-44.6-75.9-44.6S321.3,65.4,320.1,70.1z"/>
	<path class="st8_online-shopping-1-7" d="M306.9,107.2v16.5c0.3,2.7,2.3,4.8,4.9,5.5c4.5,1,5.1-4.9,5.1-4.9v-12.2L306.9,107.2z"/>
	<path class="st9_online-shopping-1-7" d="M316.6,113.8l0.4,17.4c0.3,2.7,2.3,4.8,4.9,5.5c4.5,1,5.1-4.9,5.1-4.9v-12.2L316.6,113.8z"/>
	<path class="st8_online-shopping-1-7" d="M327,119.7v16.5c0.3,2.7,2.3,4.8,4.9,5.5c4.5,1,5.1-4.9,5.1-4.9v-12.2L327,119.7z"/>
	<path class="st9_online-shopping-1-7" d="M336.9,125.7v16.5c0.3,2.7,2.3,4.8,4.9,5.5c4.5,1,5.1-4.9,5.1-4.9v-12.2L336.9,125.7z"/>
	<path class="st8_online-shopping-1-7" d="M346.9,130.7v16.5c0.3,2.7,2.3,4.8,4.9,5.5c4.5,1,5.1-4.9,5.1-4.9v-12.2L346.9,130.7z"/>
	<path class="st9_online-shopping-1-7" d="M356.7,137.4v16.5c0.3,2.7,2.3,4.8,4.9,5.5c4.5,1,5.1-4.9,5.1-4.9v-12.2L356.7,137.4z"/>
	<path class="st8_online-shopping-1-7" d="M398.6,115.7c0,0,1,0.2,1,2v31.8l-25.9,14.8l3.6-22.6L398.6,115.7z"/>
	<path class="st10_online-shopping-1-7" d="M398.6,115.7c0,0,1,0.2,1,2v31.8l-25.9,14.8l3.6-22.6L398.6,115.7z"/>
	<path class="st8_online-shopping-1-7" d="M366.7,144.2V159c0.3,2.7,2.3,4.8,4.9,5.5c4.5,1,5.1-4.9,5.1-4.9l-0.2-9.7L366.7,144.2z"/>
	<path class="st11_online-shopping-1-7" d="M306.9,107.2v16.5c0.3,2.7,2.3,4.8,4.9,5.5c4.5,1,5.1-4.9,5.1-4.9v-12.2L306.9,107.2z"/>
	<path class="st11_online-shopping-1-7" d="M327,119.7v16.5c0.3,2.7,2.3,4.8,4.9,5.5c4.5,1,5.1-4.9,5.1-4.9v-12.2L327,119.7z"/>
	<path class="st11_online-shopping-1-7" d="M346.9,130.7v16.5c0.3,2.7,2.3,4.8,4.9,5.5c4.5,1,5.1-4.9,5.1-4.9v-12.2L346.9,130.7z"/>
	<path class="st11_online-shopping-1-7" d="M366.7,144.2V159c0.3,2.7,2.3,4.8,4.9,5.5c4.5,1,5.1-4.9,5.1-4.9l-0.2-9.7L366.7,144.2z"/>
	<path class="st9_online-shopping-1-7" d="M296.9,102.4v17.3c0.3,2.7,2.3,4.8,4.9,5.5c4.5,1,5.1-4.9,5.1-4.9v-12.2L296.9,102.4z"/>
	<path class="st11_online-shopping-1-7" d="M316.6,113.8l0.4,17.4c0.3,2.7,2.3,4.8,4.9,5.5c4.5,1,5.1-4.9,5.1-4.9v-12.2L316.6,113.8z"/>
	<path class="st11_online-shopping-1-7" d="M336.9,125.7v16.5c0.3,2.7,2.3,4.8,4.9,5.5c4.5,1,5.1-4.9,5.1-4.9v-12.2L336.9,125.7z"/>
	<path class="st11_online-shopping-1-7" d="M356.7,137.4v16.5c0.3,2.7,2.3,4.8,4.9,5.5c4.5,1,5.1-4.9,5.1-4.9v-12.2L356.7,137.4z"/>
	<path class="st11_online-shopping-1-7" d="M296.9,102.4v17.3c0.3,2.7,2.3,4.8,4.9,5.5c4.5,1,5.1-4.9,5.1-4.9v-12.2L296.9,102.4z"/>
	<polyline class="st8_online-shopping-1-7" points="346.9,132.4 370.1,99.1 380.4,104.9 356.7,138.3 &#9;"/>
	<polyline class="st8_online-shopping-1-7" points="327,120.5 350.4,87.5 361.1,93.5 336.9,126.5 &#9;"/>
	<polyline class="st8_online-shopping-1-7" points="306.9,108.2 329.1,75.3 339.3,81.3 316.8,114.3 &#9;"/>
	<polyline class="st8_online-shopping-1-7" points="376.5,149.8 398.6,115.7 389.5,110.5 366.7,144.2 &#9;"/>
	<polyline class="st9_online-shopping-1-7" points="356.7,138.3 380.4,104.9 389.5,110.5 366.7,144.2 &#9;"/>
	<polyline class="st9_online-shopping-1-7" points="336.9,126.6 361.1,93.5 370.1,99.1 346.9,132.5 &#9;"/>
	<polyline class="st9_online-shopping-1-7" points="316.8,114.3 339.3,81.3 350.4,87.5 327,120.5 &#9;"/>
	<polyline class="st9_online-shopping-1-7" points="296.9,102.4 320.1,70.1 329.1,75.3 306.9,108.2 &#9;"/>
	<ellipse class="st10_online-shopping-1-7" cx="363" cy="258.5" rx="3.2" ry="15.7"/>
	<path class="st12_online-shopping-1-7" d="M313.5,257.3c0,0,0.7,43.1,2.3,43.8s5.8,0.6,7.3-1.4s3.5-20.7,3.2-25.9s-2.4-16.8-2.4-16.8"/>
	<path d="M312.9,302.4c1-1.5,1.6-3.2,1.9-5c3.4,0.9,6,1.4,8.9-0.4c0.6,2.5,2.5,5.5,2.4,7.4c-0.2,3-2.8,2-5.3,2.8&#10;&#9;&#9;c-1.8,0.5-3,2.4-4.1,4.1c-3.3,3.9-9.1,4.7-13.6,2.6c-0.3-0.7-0.5-1.5-0.6-2.3C302.2,308.1,311,305,312.9,302.4z"/>
	<path class="st9_online-shopping-1-7" d="M335.8,223.2c0-3.2,0.2-6.4,0.7-9.6l-6.4-1.3c-14,6.2-16.7,44.9-16.7,44.9s9.8,5.1,12.5,4.4&#10;&#9;&#9;c2.2-0.6,7.9-17.7,9.9-24.1C335.8,232.8,335.7,228,335.8,223.2z"/>
	<path class="st9_online-shopping-1-7" d="M313.5,257.3l-0.6,36.6c0,0,10,1.7,12.1,0.7s3.2-35.9,3.2-35.9L313.5,257.3z"/>
	<polygon class="st7_online-shopping-1-7" points="332.8,246.9 330.5,225.4 328.1,258.7 &#9;"/>
	<path class="st9_online-shopping-1-7" d="M330.7,168.7c0-0.8-4.4-6.1-1.7-8.9s5.6-2.8,8.6-1.8s7.8,3.2,9.5,10.6c1,3.9,1.7,8,2.1,12l-12-4"/>
	<path class="st9_online-shopping-1-7" d="M343,204.1c0,0-8.2-3.4-7.5-13.8c0.5-6.4,3.4-12.4,8-16.9l5.6,7.2"/>
	<path class="st9_online-shopping-1-7" d="M347.6,171.2c0,0,6.8,20.8,5.9,26.8s-10.6,6.2-10.6,6.2"/>
	<path class="st9_online-shopping-1-7" d="M364.1,253.8l-15-7.4c-0.1-10.2-1.7-20.4-4.6-30.2l-12.6-2.3c-0.6,6.8-0.8,13.7-0.6,20.5&#10;&#9;&#9;c0.1,5.1,0.8,10.2,2.3,15.1c1.2,3.9,2.9,8.3,6.8,10.3c3.3,1.8,7.5,2.4,11.1,3.4c1.1,0.3,12.6,3,12.6,3.5L364.1,253.8z"/>
	<path class="st8_online-shopping-1-7" d="M347.5,181.9c-0.8-0.9-1.6-1.7-2.5-2.4c-4.9-2.2-12.5-4.1-13.8-3.9s-5.8,2.2-6.7,5.4s-1.4,10.1-1.4,18&#10;&#9;&#9;c0,8.4-2.6,20-2.6,20s8.2,5.6,15.7,4.8c5.3-0.5,9.2-0.9,10.7-2.5C347.1,209.3,346.6,193.2,347.5,181.9z"/>
	<path class="st12_online-shopping-1-7" d="M341.3,172.3v6.9c0,0-3.4,2.5-6.6,0l-1.6-7.4"/>
	<path class="st11_online-shopping-1-7" d="M341.3,172.3v6.9c0,0-3.4,2.5-6.6,0l-1.6-7.4"/>
	<path class="st12_online-shopping-1-7" d="M331.8,163.5c0.1,0,0.2,0,0.2,0c1.3,0.4,2.6,0.7,4,0.9c1.4,0,2.7-0.1,4.1,0c0.9,0,1.5,2.2,1.4,4.8&#10;&#9;&#9;c0.6-0.4,1.3-0.5,1.8,0.2c0.4,0.8,0.2,1.7-0.5,2.2c-0.4,0.4-1,0.7-1.6,0.8c-0.4,2.7-2.5,4.9-5.2,5.4c-2.4,0.4-3.9-1.1-4.6-3.2&#10;&#9;&#9;c-0.8-2.8-1-5.6-0.6-8.5l0.1-1.4c0.1-0.4,0.4-0.8,0.7-1C331.7,163.6,331.7,163.5,331.8,163.5z"/>
	<path class="st9_online-shopping-1-7" d="M332.4,162.5c0,0,5,7.2,8.8,6.7s-0.4-6.2-0.4-6.2"/>
</g>
<g id="cart_online-shopping-1-7">
	
		<linearGradient id="SVGID_00000108275396195350863030000012642172045403819683_-online-shopping-1-7" gradientUnits="userSpaceOnUse" x1="210.5368" y1="118.3012" x2="287.6068" y2="209.1113" gradientTransform="matrix(1 0 0 -1 0 502)">
		<stop offset="0" style="stop-color:#4444A5;stop-opacity:0"/>
		<stop offset="1" style="stop-color:#000000"/>
	</linearGradient>
	<path style="fill:url(#SVGID_00000108275396195350863030000012642172045403819683_);" d="M226,329.6&#10;&#9;&#9;c-23.1,13.2-46.2,26.6-69.3,39.9c24.9,15.2,58.6,35.4,64,38.3l69.6-40.4L226,329.6z"/>
	<path class="st14_online-shopping-1-7" d="M174.4,298.4c17.5-9.8,38.3-20.7,55.7-30.5l14.2-8c1.6-0.9,3.4-2.3,5.1-3.1c0.6,0.2,1.1,0.4,1.6,0.8&#10;&#9;&#9;c1.8,1.2,3.9,2.2,5.8,3.3l17,9.6c8.5,4.8,21.1,10.5,29.6,15.3c1.8,0-0.4-1.1,1.4-1.2l-0.1-0.1l-25.5-14.3l-18.9-10.5&#10;&#9;&#9;c-2.8-1.5-6.6-4.8-9.7-5.4c-1.8-0.4-2.5,0.3-4.1,1.2l-11.4,6.4l-36.7,20.7L173,296.7c-0.3,0.2-0.5,0.4-0.6,0.7&#10;&#9;&#9;C174.2,297.5,172.6,298.5,174.4,298.4z"/>
	<path class="st14_online-shopping-1-7" d="M246.5,337.1c-16.2-11.3-33.9-20.1-50.4-30.9c-1.2-0.8-2.3,1.1-1.1,1.9c16.5,10.8,34.2,19.6,50.4,30.9&#10;&#9;&#9;C246.6,339.9,247.7,337.9,246.5,337.1z"/>
	<path class="st14_online-shopping-1-7" d="M278,318.7c-17.2-9-33.4-19.7-50.1-29.5c-0.6-0.3-1.2,0-1.5,0.5c-0.2,0.5-0.1,1.1,0.4,1.4&#10;&#9;&#9;c16.7,9.9,32.9,20.5,50.1,29.5C278.2,321.3,279.3,319.4,278,318.7z"/>
	<path class="st2_online-shopping-1-7 targetColor" d="M233.6,338.3l-2.9-1.6c-0.7-0.4-1.2-1.1-1.4-1.9c-0.5-2.5-0.8-7.9,5.3-10.3l3,1.8" style="fill: rgb(104, 225, 253);"/>
	<ellipse transform="matrix(0.4983 -0.867 0.867 0.4983 -167.3573 372.8799)" class="st4_online-shopping-1-7" cx="238.5" cy="331" rx="7.3" ry="4.2"/>
	<polygon class="st15_online-shopping-1-7" points="241,327.7 241,324.3 236.8,322.1 231.6,324.2 230.7,327.3 233,325.4 235.8,327 235.8,330.2 &#9;"/>
	<path class="st15_online-shopping-1-7" d="M241,327.7c0,0-0.6,6-2.9,6.5s-2.7-4.2-2.3-5.2"/>
	<path class="st2_online-shopping-1-7 targetColor" d="M183.5,372.5l-2.9-1.5c-0.7-0.4-1.2-1.1-1.4-1.9c-0.5-2.5-0.8-7.9,5.3-10.3l3,1.8" style="fill: rgb(104, 225, 253);"/>
	<ellipse transform="matrix(0.5 -0.866 0.866 0.5 -223.5514 345.1364)" class="st4_online-shopping-1-7" cx="187.1" cy="366.2" rx="7.3" ry="4.2"/>
	<polygon class="st15_online-shopping-1-7" points="190.9,361.9 190.9,358.5 186.8,356.4 181.5,358.4 180.6,361.5 182.9,359.5 185.8,361.2 185.8,364.4 &#9;&#10;&#9;&#9;"/>
	<path class="st15_online-shopping-1-7" d="M190.9,361.9c0,0-0.6,6-2.9,6.5s-2.7-4.3-2.3-5.2"/>
	<path class="st2_online-shopping-1-7 targetColor" d="M227.8,399.4l-2.9-1.5c-0.7-0.4-1.2-1.1-1.4-1.9c-0.5-2.5-0.8-7.9,5.3-10.3l3,1.8" style="fill: rgb(104, 225, 253);"/>
	<ellipse transform="matrix(0.5 -0.866 0.866 0.5 -224.7451 396.9408)" class="st4_online-shopping-1-7" cx="231.4" cy="393.1" rx="7.3" ry="4.2"/>
	<polygon class="st15_online-shopping-1-7" points="235.1,388.8 235.1,385.4 231,383.3 225.8,385.4 224.9,388.4 227.2,386.5 230,388.2 230,391.3 &#9;"/>
	<path class="st15_online-shopping-1-7" d="M235.1,388.8c0,0-0.6,6-2.9,6.5s-2.7-4.3-2.3-5.2"/>
	<path class="st2_online-shopping-1-7 targetColor" d="M286.5,368.7l-2.8-1.5c-0.7-0.4-1.2-1.1-1.4-1.9c-0.5-2.5-0.8-7.9,5.3-10.3l3,1.8" style="fill: rgb(104, 225, 253);"/>
	<ellipse transform="matrix(0.5 -0.866 0.866 0.5 -168.7587 432.4796)" class="st4_online-shopping-1-7" cx="290.2" cy="362.4" rx="7.3" ry="4.2"/>
	<polygon class="st15_online-shopping-1-7" points="293.9,358.1 293.9,354.7 289.8,352.6 284.5,354.6 283.7,357.7 286,355.8 288.8,357.4 288.8,360.6 &#9;&#10;&#9;&#9;"/>
	<path class="st15_online-shopping-1-7" d="M293.9,358.1c0,0-0.6,6-2.9,6.5s-2.7-4.3-2.3-5.2"/>
	<path class="st14_online-shopping-1-7" d="M298.6,310.1l-22.3-12.6l-29.5-16.7c-0.6-0.4-1.3-0.8-2-1.1c-0.8-0.4-1.5,0.2-2.2,0.6l-9.6,5.4l-33.5,18.8&#10;&#9;&#9;c-7.6,4.3-15.4,8.5-23,12.9l-0.4,0.2c-0.5,0.4-0.6,1.1-0.3,1.6c0.3,0.4,0.9,0.6,1.4,0.4l22.9-12.9l36.3-20.4l8.3-4.7h-1.1&#10;&#9;&#9;l18.2,10.3l29,16.4l6.7,3.8c0.5,0.3,1.2,0.1,1.5-0.4S299.2,310.5,298.6,310.1L298.6,310.1L298.6,310.1z"/>
	<path class="st14_online-shopping-1-7" d="M259.2,215.6l13.1-7.8h-1.1l18,10.9l28.5,17.1l6.6,4v-1.9l-11.5,6.5c-0.6,0.2-1,0.8-1.2,1.4&#10;&#9;&#9;c-0.2,0.7-0.3,1.4-0.5,2l-4.8,22.2l-7.4,34.2l-7,32.2l-2.4,11c-0.5,1.7-0.9,3.5-1.1,5.3c0,0.1,0,0.2,0,0.2l0.5-0.7l-20.5,10.7&#10;&#9;&#9;l-32.6,17l-7.5,3.9h1.1l-15.1-9l-24-14.4L185,357v1.9l9.2-6.5l19.5-13.7l17.5-12.3l4.3-3c0.5-0.3,0.9-0.9,1-1.5l2.2-10.2l4.3-19.5&#10;&#9;&#9;l5.2-23.9l5.2-24l4.2-19.1c0.7-3.3,1.5-6.5,2.1-9.8c0-0.1,0.1-0.3,0.1-0.4c0.3-1.4-1.9-2-2.2-0.6l-2.4,10.7l-5.6,25.7l-6.8,31.1&#10;&#9;&#9;l-5.9,26.8l-1.9,8.9c-0.4,1.4-0.7,2.8-0.9,4.2c0,0.1,0,0.1,0,0.2l0.5-0.7l-17.3,12.2l-27.3,19.2l-6.3,4.4c-0.5,0.3-0.7,1-0.4,1.6&#10;&#9;&#9;c0.1,0.2,0.2,0.3,0.4,0.4l18,10.7l24.6,14.7c0.6,0.4,1.3,0.8,2,1.2c0.6,0.2,1.2,0.2,1.7-0.2l7-3.7l27.4-14.3l23.4-12.2&#10;&#9;&#9;c0.9-0.5,2.5-1,2.9-2.1c0.4-1.5,0.7-3.1,1-4.7l5-23l7-32.2l6.5-29.9l3.6-16.7l0.2-0.8l-0.5,0.7l12.1-6.8c0.5-0.3,0.7-1,0.4-1.6&#10;&#9;&#9;c-0.1-0.2-0.2-0.3-0.4-0.4l-18-10.9L279,209.7l-6.6-4c-0.4-0.2-0.8-0.2-1.1,0l-13.1,7.8c-0.5,0.3-0.7,1-0.5,1.5&#10;&#9;&#9;C258,215.6,258.7,215.8,259.2,215.6L259.2,215.6z"/>
	<path class="st14_online-shopping-1-7" d="M290.1,249.4l-4.3,17.4l-6.9,27.7l-1.6,6.4c-0.1,0.6,0.3,1.2,0.9,1.3c0.5,0.1,1.1-0.2,1.3-0.7l4.3-17.4&#10;&#9;&#9;l6.9-27.7l1.6-6.4c0.1-0.6-0.3-1.2-0.9-1.3C290.9,248.6,290.3,248.9,290.1,249.4L290.1,249.4z"/>
	<path class="st14_online-shopping-1-7" d="M271.9,239.1l-4.3,17.1l-6.8,27l-1.6,6.2c-0.1,0.6,0.3,1.2,0.9,1.3c0.5,0.1,1-0.2,1.2-0.7l4.3-17l6.8-27.1&#10;&#9;&#9;l1.5-6.2c0.1-0.6-0.3-1.2-0.9-1.3C272.6,238.3,272.1,238.6,271.9,239.1L271.9,239.1z"/>
	<path class="st14_online-shopping-1-7" d="M264.4,327.2c-16.7-10.3-33.3-20.7-50.4-30.3c-0.5-0.3-1.2-0.1-1.5,0.4s-0.1,1.2,0.4,1.5&#10;&#9;&#9;c17,9.6,33.7,20,50.4,30.3C264.5,330,265.6,328,264.4,327.2z"/>
	<path class="st14_online-shopping-1-7" d="M310.1,259.1l-27.4-15.5l-18.5-10.4l-6.1-3.4c-0.7-0.4-1.9-1.4-2.7-1.4c-0.7,0.2-1.4,0.5-2,1l-4.2,2.4&#10;&#9;&#9;l-14.5,8.1l-39.5,22.1c-8.2,4.6-16.6,9-24.7,13.8l-0.4,0.2c-1.3,0.7-0.1,2.6,1.1,2l8.5-4.7l20.2-11.3l24.6-13.7l21.1-11.8l7-3.9&#10;&#9;&#9;c1.2-0.5,2.3-1.1,3.3-1.9l0.1-0.1h-1.1l18.4,10.4l29,16.4l6.7,3.8c0.5,0.3,1.2,0.1,1.5-0.4S310.6,259.5,310.1,259.1L310.1,259.1z"/>
	<path class="st14_online-shopping-1-7" d="M187.3,287.7l6.3,36.8l0.9,5.1c0.2,1.4,2.4,0.8,2.2-0.6l-6.3-36.8l-0.9-5.1&#10;&#9;&#9;C189.2,285.7,187.1,286.3,187.3,287.7L187.3,287.7z"/>
	<path class="st14_online-shopping-1-7" d="M192.8,263.8v44.6c0.1,0.6,0.6,1.1,1.2,1c0.5-0.1,1-0.5,1-1v-44.6c-0.1-0.6-0.6-1.1-1.2-1&#10;&#9;&#9;C193.3,262.8,192.9,263.3,192.8,263.8z"/>
	<path class="st14_online-shopping-1-7" d="M211.9,253.2l-0.4,15.4l-0.6,24.6l-0.1,5.7c0,1.4,2.2,1.4,2.2,0l0.4-15.4l0.6-24.6l0.1-5.7&#10;&#9;&#9;C214.1,251.7,211.9,251.7,211.9,253.2z"/>
	<path class="st14_online-shopping-1-7" d="M230.3,242.9l-1.9,16.2l-3,25.9l-0.7,6c-0.2,1.4,2.1,1.4,2.2,0l1.9-16.2l3-25.9l0.7-6&#10;&#9;&#9;C232.7,241.4,230.5,241.5,230.3,242.9L230.3,242.9z"/>
	<path class="st16_online-shopping-1-7" d="M320.5,234.7c0,0-1.2-0.7-1.8,0s0,1.7,0,1.7l1,0.6c-0.6,0.6-1.5,0.8-2.2,0.4c-1.6-0.5-41.5-24.3-41.5-24.3&#10;&#9;&#9;s-1.1-1.4-0.5-2.6c0.6-1.5,2.2-2.4,3.8-2.1c2.1,0.4,41.2,23.9,41.2,23.9S321.6,234,320.5,234.7z"/>
	<path class="st16_online-shopping-1-7" d="M263.9,209.3c13.9,1,13.2,23.5,14.2,32.9c0.2,2.4-3.4,3.1-3.6,0.8c-0.8-7.8-0.3-18.4-4.6-25.2&#10;&#9;&#9;c-1.3-2.1-2.9-4.2-5.7-4.4c-1.7-0.1-3.3,0.6-4.5,1.8c-1.2,1.1-1.9,5.5-2.1,6.8c-0.7,4.8-0.8,9.7-0.2,14.6c0.2,2.4-3.4,3.1-3.6,0.8&#10;&#9;&#9;C252.9,229.9,251.5,208.5,263.9,209.3z"/>
	<polyline class="st2_online-shopping-1-7 targetColor" points="243,224.5 238.8,231.5 230.4,233.2 236.7,254.9 254.6,243.4 &#9;" style="fill: rgb(104, 225, 253);"/>
	<polyline class="st17_online-shopping-1-7" points="243,224.5 238.8,231.5 230.4,233.2 236.7,254.9 254.6,243.4 &#9;"/>
	<polygon class="st2_online-shopping-1-7 targetColor" points="286,248.2 243,224.5 244.4,259.8 277.3,262.9 &#9;" style="fill: rgb(104, 225, 253);"/>
	<polygon class="st4_online-shopping-1-7" points="286,248.2 243,224.5 244.4,259.8 277.3,262.9 &#9;"/>
	<polygon class="st2_online-shopping-1-7 targetColor" points="270.6,253.5 264,320.2 223.8,296.1 230.4,233.2 &#9;" style="fill: rgb(104, 225, 253);"/>
	<polygon class="st2_online-shopping-1-7 targetColor" points="270.6,253.5 275.2,248.2 286,248.2 286,307 278.9,312 264,320.2 &#9;" style="fill: rgb(104, 225, 253);"/>
	<polygon class="st17_online-shopping-1-7" points="270.6,253.5 275.2,248.2 286,248.2 286,307 278.9,312 264,320.2 &#9;"/>
	<path class="st16_online-shopping-1-7" d="M245.9,220.5c14,0.1,14.6,22.7,16.1,32c0.4,2.3-3.2,3.3-3.6,1c-1.2-7.7-1.4-18.3-6.1-24.9&#10;&#9;&#9;c-1.9-2.7-5.4-5-8.7-3.2c-3,1.6-3,5.1-3.3,8.1c-0.4,4.8-0.2,9.7,0.7,14.5c0.4,2.3-3.2,3.3-3.6,1&#10;&#9;&#9;C236.2,241.7,233.5,220.4,245.9,220.5z"/>
	<path class="st16_online-shopping-1-7" d="M230.6,256.3c10.5,0.7,9.9,17.7,10.6,24.7c0.2,1.8-2.5,2.4-2.7,0.6c-0.6-5.9-0.2-13.8-3.4-18.9&#10;&#9;&#9;c-1-1.6-2.2-3.1-4.3-3.3c-1.3-0.1-2.5,0.4-3.4,1.3c-0.9,0.8-1.4,4.1-1.6,5.1c-0.5,3.6-0.6,7.3-0.2,11c0.2,1.8-2.5,2.4-2.7,0.6&#10;&#9;&#9;C222.3,271.7,221.2,255.6,230.6,256.3z"/>
	<polyline class="st2_online-shopping-1-7 targetColor" points="214.9,267.6 211.7,272.9 205.4,274.2 210.2,290.5 223.6,281.8 &#9;" style="fill: rgb(104, 225, 253);"/>
	<polyline class="st17_online-shopping-1-7" points="214.9,267.6 211.7,272.9 205.4,274.2 210.2,290.5 223.6,281.8 &#9;"/>
	<polygon class="st2_online-shopping-1-7 targetColor" points="247.2,285.5 214.9,267.6 215.9,294.1 240.6,296.5 &#9;" style="fill: rgb(104, 225, 253);"/>
	<polygon class="st4_online-shopping-1-7" points="247.2,285.5 214.9,267.6 215.9,294.1 240.6,296.5 &#9;"/>
	<polygon class="st2_online-shopping-1-7 targetColor" points="235.6,289.4 230.6,339.5 200.5,321.4 205.4,274.2 &#9;" style="fill: rgb(104, 225, 253);"/>
	<polygon class="st2_online-shopping-1-7 targetColor" points="235.6,289.4 239,285.5 247.2,285.5 247.2,329.6 241.8,333.4 230.6,339.5 &#9;" style="fill: rgb(104, 225, 253);"/>
	<polygon class="st17_online-shopping-1-7" points="235.6,289.4 239,285.5 247.2,285.5 247.2,329.6 241.8,333.4 230.6,339.5 &#9;"/>
	<path class="st16_online-shopping-1-7" d="M217.1,264.7c10.5,0.1,11,17,12.1,24c0.3,1.8-2.4,2.5-2.7,0.7c-0.9-5.8-1-13.8-4.6-18.7c-1.5-2-4-3.7-6.5-2.4&#10;&#9;&#9;c-2.2,1.2-2.3,3.9-2.5,6.1c-0.3,3.7-0.2,7.3,0.5,11c0.3,1.8-2.4,2.5-2.7,0.7C209.7,280.6,207.7,264.6,217.1,264.7z"/>
	<path class="st14_online-shopping-1-7" d="M308.9,259.1l-8.5,4.8l-20.3,11.5l-24.5,13.9l-21.3,12.1l-7,4c-1.2,0.5-2.3,1.2-3.3,1.9l-0.1,0.1h1.2&#10;&#9;&#9;l-18.2-10.7l-28.9-17l-6.7-3.9c-0.6-0.3-1.3-0.1-1.6,0.5c-0.1,0.2-0.2,0.5-0.1,0.8l2.4,16.2l3.4,23c0.2,1.1,0.1,2.6,1.1,3.3&#10;&#9;&#9;c1.4,0.9,2.9,1.6,4.3,2.5l19.6,11.3l21.4,12.4l6.5,3.8c0.9,0.5,1.8,1.3,2.8,0.8c1.2-0.6,2.4-1.3,3.5-2l7.3-4.1l21.4-12.1l22-12.4&#10;&#9;&#9;l12.7-7.2l0.6-0.4c0.5-0.3,0.7-1,0.4-1.5s-1-0.7-1.5-0.4l-23,13l-36.4,20.6l-8.4,4.8h1.1L212.8,338L184,321.4l-6.7-3.9l0.5,0.7&#10;&#9;&#9;l-5.4-36.5l-0.8-5.2l-1.7,1.3l27.2,16l18.4,10.8l6.1,3.6c0.7,0.4,2,1.5,2.9,1.3c0.6-0.3,1.2-0.6,1.8-1l4.2-2.4l14.7-8.4l39.4-22.4&#10;&#9;&#9;c8.3-4.7,16.6-9.2,24.8-14.1l0.4-0.2c0.5-0.3,0.7-1,0.4-1.5S309.4,258.8,308.9,259.1L308.9,259.1L308.9,259.1z"/>
	<path class="st14_online-shopping-1-7" d="M303.5,284.2c-17.7,9.7-38.5,21.1-56.2,30.8c-6.2,3.4-12.9,8.4-19.6,10.9c-0.5-0.1-0.9-0.4-1.3-0.6&#10;&#9;&#9;c-1.7-1.1-3.6-2-5.3-2.9c-5.6-3.1-11.3-6.2-16.9-9.3c-8.7-4.8-21-11-29.8-15.9c-1.8,0.1-0.1,1.6-1.9,1.5c0.1,0.2,0.3,0.4,0.5,0.5&#10;&#9;&#9;l25.8,14.2l18.3,10.1c2.6,1.4,6.6,4.8,9.6,5.3c1.7,0.3,2.5-0.4,4-1.3l12.4-6.8l36.7-20.1l25.2-13.8c0.4-0.2,0.7-0.7,0.7-1.2&#10;&#9;&#9;C303.9,285.8,305.2,284.2,303.5,284.2z"/>
	<path class="st14_online-shopping-1-7" d="M205.4,298.2l5.6,36.4l0.8,5.1c0.2,1.4,2.4,0.8,2.2-0.6l-5.6-36.4l-0.8-5.1&#10;&#9;&#9;C207.4,296.2,205.2,296.8,205.4,298.2L205.4,298.2z"/>
	<path class="st14_online-shopping-1-7" d="M223.3,308.7l5.2,36l0.7,5.1c0.2,1.4,2.4,0.8,2.2-0.6l-5.2-35.9l-0.7-5.1&#10;&#9;&#9;C225.3,306.6,223.1,307.2,223.3,308.7z"/>
	<path class="st14_online-shopping-1-7" d="M247,295.7c0,14.4,0.7,28.9,0.7,43.3c0.1,0.6,0.6,1.1,1.2,1c0.5-0.1,1-0.5,1-1c0-14.4-0.7-28.9-0.7-43.3&#10;&#9;&#9;c-0.1-0.6-0.6-1.1-1.2-1C247.5,294.7,247.1,295.1,247,295.7z"/>
	<path class="st14_online-shopping-1-7" d="M264.6,284.9c-0.2,14.3-0.2,28.7,0,43c0.1,0.6,0.6,1.1,1.2,1c0.5-0.1,1-0.5,1-1c-0.2-14.3-0.2-28.7,0-43&#10;&#9;&#9;c-0.1-0.6-0.6-1.1-1.2-1C265.1,283.9,264.7,284.4,264.6,284.9z"/>
	<path class="st14_online-shopping-1-7" d="M285.1,273.2l-5.8,46.4c-0.2,1.4,2.1,1.4,2.2,0l5.8-46.4C287.5,271.8,285.3,271.8,285.1,273.2z"/>
</g>
<g id="hand_online-shopping-1-7">
	<path class="st12_online-shopping-1-7" d="M322,187.7c-2.2,4.2-4.8,8.2-7.6,12c-2,2.4-19.8,10.5-19.8,10.5s-9.8-1.2-11.1,2.2s-2.1,4.4,1.2,6.2&#10;&#9;&#9;s6.5-3,9.6-3.3s22.9-4.4,32-18.1c1.3-1.9,2.6-8.4,4.2-10.5c-0.2-1-0.4-2.1-0.4-3.1C326.6,184.3,325.5,186.5,322,187.7z"/>
	<path class="st12_online-shopping-1-7" d="M338.6,192.2c-2.1,5.2-4.8,10.1-8,14.6c-1.6,2.4-18.7,14.3-18.7,14.3s-7.3-1.4-8.1,1.9s-1.8,6.2,1.5,7.5&#10;&#9;&#9;s6-5.3,8.9-6s19.7-8.1,27.2-17.6c2.1-2.8,3.8-5.9,4.8-9.3C342.4,196.4,342,194.6,338.6,192.2z"/>
	<path class="st8_online-shopping-1-7" d="M332,199.7c0,0,6.6-19,8.8-19.9s6.7-0.7,7.8,3.9s-3.1,19.2-4.3,20.9S332,199.7,332,199.7z"/>
	<polygon class="st8_online-shopping-1-7" points="329,196.9 324.1,202.2 315,192.3 326.2,178.3 334,183.4 334,194.3 &#9;"/>
</g>
</svg>