<svg width="190" height="1440" viewBox="0 0 190 1440" fill="none" xmlns="http://www.w3.org/2000/svg">
<g clip-path="url(#clip0_522_828)">
<path d="M14.3245 1987.77L30.1245 1939.77C46.3245 1891.77 77.3245 1795.77 80.8245 1699.77C84.3245 1603.77 58.3245 1507.77 61.8245 1411.77C65.3245 1315.77 96.3245 1219.77 106.125 1123.77C115.325 1027.77 103.325 931.771 96.6245 835.771C90.3245 739.771 90.3245 643.771 96.6245 547.771C103.325 451.771 115.325 355.771 99.8245 259.771C84.3245 163.771 39.3245 67.771 20.6245 -28.229C1.32452 -124.229 8.32452 -220.229 23.8245 -316.229C39.3245 -412.229 65.3245 -508.229 87.1245 -604.229C109.325 -700.229 128.325 -796.229 134.625 -892.229C141.325 -988.229 134.325 -1084.23 122.025 -1180.23C109.325 -1276.23 90.3245 -1372.23 84.0245 -1468.23C77.3245 -1564.23 84.3245 -1660.23 80.8245 -1756.23C77.3245 -1852.23 65.3245 -1948.23 52.3245 -2044.23C39.3245 -2140.23 27.3245 -2236.23 20.6245 -2332.23C14.3245 -2428.23 14.3245 -2524.23 27.0245 -2620.23C39.3245 -2716.23 65.3245 -2812.23 58.6245 -2908.23C52.3245 -3004.23 14.3245 -3100.23 11.1245 -3196.23C8.32452 -3292.23 39.3245 -3388.23 68.1245 -3484.23C96.3245 -3580.23 122.325 -3676.23 131.525 -3772.23C141.325 -3868.23 134.325 -3964.23 109.325 -4060.23C84.3245 -4156.23 39.3245 -4252.23 30.1245 -4348.23C20.3245 -4444.23 46.3245 -4540.23 49.1245 -4636.23C52.3245 -4732.23 33.3245 -4828.23 23.8245 -4876.23L14.3245 -4924.23H166.325V-4876.23C166.325 -4828.23 166.325 -4732.23 166.325 -4636.23C166.325 -4540.23 166.325 -4444.23 166.325 -4348.23C166.325 -4252.23 166.325 -4156.23 166.325 -4060.23C166.325 -3964.23 166.325 -3868.23 166.325 -3772.23C166.325 -3676.23 166.325 -3580.23 166.325 -3484.23C166.325 -3388.23 166.325 -3292.23 166.325 -3196.23C166.325 -3100.23 166.325 -3004.23 166.325 -2908.23C166.325 -2812.23 166.325 -2716.23 166.325 -2620.23C166.325 -2524.23 166.325 -2428.23 166.325 -2332.23C166.325 -2236.23 166.325 -2140.23 166.325 -2044.23C166.325 -1948.23 166.325 -1852.23 166.325 -1756.23C166.325 -1660.23 166.325 -1564.23 166.325 -1468.23C166.325 -1372.23 166.325 -1276.23 166.325 -1180.23C166.325 -1084.23 166.325 -988.229 166.325 -892.229C166.325 -796.229 166.325 -700.229 166.325 -604.229C166.325 -508.229 166.325 -412.229 166.325 -316.229C166.325 -220.229 166.325 -124.229 166.325 -28.229C166.325 67.771 166.325 163.771 166.325 259.771C166.325 355.771 166.325 451.771 166.325 547.771C166.325 643.771 166.325 739.771 166.325 835.771C166.325 931.771 166.325 1027.77 166.325 1123.77C166.325 1219.77 166.325 1315.77 166.325 1411.77C166.325 1507.77 166.325 1603.77 166.325 1699.77C166.325 1795.77 166.325 1891.77 166.325 1939.77V1987.77H14.3245Z" fill="url(#paint0_linear_522_828)"/>
<path opacity="0.9" d="M38 1440L57 1392C76 1344 114 1248 126.7 1152C139 1056 127 960 107.7 864C89 768 63 672 50.7 576C38 480 38 384 50.7 288C63 192 89 96 95 0C101 -96 89 -192 95 -288C101 -384 127 -480 120.3 -576C114 -672 76 -768 76 -864C76 -960 114 -1056 107.7 -1152C101 -1248 51 -1344 25.3 -1440C0 -1536 -4.76837e-07 -1632 6.3 -1728C13 -1824 25 -1920 25.3 -2016C25 -2112 13 -2208 6.3 -2304C-4.76837e-07 -2400 -4.76837e-07 -2496 9.5 -2592C19 -2688 38 -2784 41.2 -2880C44 -2976 32 -3072 41.2 -3168C51 -3264 82 -3360 101.3 -3456C120 -3552 127 -3648 117.2 -3744C108 -3840 82 -3936 76 -4032C70 -4128 82 -4224 95 -4320C108 -4416 120 -4512 110.8 -4608C101 -4704 70 -4800 66.5 -4896C63 -4992 89 -5088 98.2 -5184C108 -5280 101 -5376 98.2 -5424L95 -5472H190V-5424C190 -5376 190 -5280 190 -5184C190 -5088 190 -4992 190 -4896C190 -4800 190 -4704 190 -4608C190 -4512 190 -4416 190 -4320C190 -4224 190 -4128 190 -4032C190 -3936 190 -3840 190 -3744C190 -3648 190 -3552 190 -3456C190 -3360 190 -3264 190 -3168C190 -3072 190 -2976 190 -2880C190 -2784 190 -2688 190 -2592C190 -2496 190 -2400 190 -2304C190 -2208 190 -2112 190 -2016C190 -1920 190 -1824 190 -1728C190 -1632 190 -1536 190 -1440C190 -1344 190 -1248 190 -1152C190 -1056 190 -960 190 -864C190 -768 190 -672 190 -576C190 -480 190 -384 190 -288C190 -192 190 -96 190 0C190 96 190 192 190 288C190 384 190 480 190 576C190 672 190 768 190 864C190 960 190 1056 190 1152C190 1248 190 1344 190 1392V1440H38Z" fill="url(#paint1_linear_522_828)"/>
<path d="M161 1439.97V1391.97C161 1343.97 161 1247.97 154.7 1151.97C148 1055.97 136 959.97 116.7 863.97C97.9999 767.97 71.9999 671.97 72.2999 575.97C71.9999 479.97 98 383.97 100.8 287.97C104 191.97 85 95.9702 81.8 -0.0297852C79 -96.0298 91 -192.03 91.3 -288.03C91 -384.03 79 -480.03 81.8 -576.03C85 -672.03 104 -768.03 123 -864.03C142 -960.03 161 -1056.03 170.5 -1152.03C180 -1248.03 180 -1344.03 167.3 -1440.03C155 -1536.03 129 -1632.03 119.8 -1728.03C110 -1824.03 117 -1920.03 110.3 -2016.03C104 -2112.03 85 -2208.03 94.5 -2304.03C104 -2400.03 142 -2496.03 151.5 -2592.03C161 -2688.03 142 -2784.03 116.7 -2880.03C90.9999 -2976.03 60 -3072.03 59.7 -3168.03C60 -3264.03 91 -3360.03 110.3 -3456.03C129 -3552.03 136 -3648.03 123 -3744.03C110 -3840.03 79 -3936.03 69.2 -4032.03C60 -4128.03 72 -4224.03 81.8 -4320.03C91 -4416.03 98 -4512.03 100.8 -4608.03C104 -4704.03 104 -4800.03 97.6999 -4896.03C90.9999 -4992.03 79 -5088.03 81.8 -5184.03C85 -5280.03 104 -5376.03 113.5 -5424.03L123 -5472.03H199V-5424.03C199 -5376.03 199 -5280.03 199 -5184.03C199 -5088.03 199 -4992.03 199 -4896.03C199 -4800.03 199 -4704.03 199 -4608.03C199 -4512.03 199 -4416.03 199 -4320.03C199 -4224.03 199 -4128.03 199 -4032.03C199 -3936.03 199 -3840.03 199 -3744.03C199 -3648.03 199 -3552.03 199 -3456.03C199 -3360.03 199 -3264.03 199 -3168.03C199 -3072.03 199 -2976.03 199 -2880.03C199 -2784.03 199 -2688.03 199 -2592.03C199 -2496.03 199 -2400.03 199 -2304.03C199 -2208.03 199 -2112.03 199 -2016.03C199 -1920.03 199 -1824.03 199 -1728.03C199 -1632.03 199 -1536.03 199 -1440.03C199 -1344.03 199 -1248.03 199 -1152.03C199 -1056.03 199 -960.03 199 -864.03C199 -768.03 199 -672.03 199 -576.03C199 -480.03 199 -384.03 199 -288.03C199 -192.03 199 -96.0298 199 -0.0297852C199 95.9702 199 191.97 199 287.97C199 383.97 199 479.97 199 575.97C199 671.97 199 767.97 199 863.97C199 959.97 199 1055.97 199 1151.97C199 1247.97 199 1343.97 199 1391.97V1439.97H161Z" fill="url(#paint2_linear_522_828)"/>
</g>
<defs>
<linearGradient id="paint0_linear_522_828" x1="166.325" y1="1987.77" x2="8.90088" y2="1987.77" gradientUnits="userSpaceOnUse">
<stop stop-color="#388E3C"/>
<stop offset="1" stop-color="#4CAF50"/>
</linearGradient>
<linearGradient id="paint1_linear_522_828" x1="190" y1="1440" x2="1.91382" y2="1440" gradientUnits="userSpaceOnUse">
<stop stop-color="#8BC34A"/>
<stop offset="1" stop-color="#A8D5A2"/>
</linearGradient>
<linearGradient id="paint2_linear_522_828" x1="199" y1="1439.97" x2="59.7" y2="1439.97" gradientUnits="userSpaceOnUse">
<stop stop-color="white"/>
<stop offset="1" stop-color="white"/>
</linearGradient>
<clipPath id="clip0_522_828">
<rect width="1440" height="190" fill="white" transform="matrix(0 -1 1 0 0 1440)"/>
</clipPath>
</defs>
</svg>
